<?xml version="1.0" encoding="utf-8"?>
<!-- Generator: Adobe Illustrator 26.0.2, SVG Export Plug-In . SVG Version: 6.00 Build 0)  -->
<svg version="1.1" id="Layer_1" xmlns="http://www.w3.org/2000/svg" xmlns:xlink="http://www.w3.org/1999/xlink" x="0px" y="0px"
	 viewBox="0 0 160 160" style="enable-background:new 0 0 160 160;" xml:space="preserve">
<style type="text/css">
	.st0{fill:#00A1E4;}
	.st1{opacity:0.4;fill:#FDB913;}
	.st2{fill:#FDB913;}
	.st3{opacity:0.7;}
</style>
<g>
	<path d="M80.4,75.9c-8.7,0-15.7-7-15.7-15.7s7-15.7,15.7-15.7s15.7,7,15.7,15.7S89,75.9,80.4,75.9z M80.4,47.8
		c-6.8,0-12.4,5.6-12.4,12.4c0,6.8,5.6,12.4,12.4,12.4c6.8,0,12.4-5.6,12.4-12.4C92.8,53.4,87.2,47.8,80.4,47.8z M103.9,120H56
		v-15.3c0-5.6,1.8-11,5.2-15.1c5.1-5.8,11.9-9,18.7-9c6.9,0,13.7,3.3,18.7,9l0,0c3.4,4.1,5.2,9.4,5.2,15.1V120z M59.3,116.7h41.3
		v-12c0-4.9-1.6-9.5-4.5-13c-4.4-5-10.3-7.8-16.2-7.8c-5.9,0-11.8,2.9-16.2,7.9c-2.8,3.4-4.4,8.1-4.4,12.9V116.7z"/>
	<g>
		<path class="st0" d="M79.6,4c-42,0-76,34-76,76c0,42,34,76,76,76s76-34,76-76C155.5,38,121.5,4,79.6,4z M79.6,132.8
			c-29.2,0-52.8-23.7-52.8-52.8s23.7-52.8,52.8-52.8s52.8,23.7,52.8,52.8S108.8,132.8,79.6,132.8z"/>
		<g>
			<path class="st1" d="M79.6,15.6C44,15.6,15.2,44.4,15.2,80s28.8,64.4,64.4,64.4S144,115.6,144,80S115.1,15.6,79.6,15.6z
				 M79.6,138.6c-32.4,0-58.6-26.2-58.6-58.6c0-32.4,26.2-58.6,58.6-58.6c32.4,0,58.6,26.2,58.6,58.6
				C138.2,112.4,112,138.6,79.6,138.6z"/>
			<path class="st2" d="M79.6,4c-42,0-76,34-76,76c0,42,34,76,76,76s76-34,76-76C155.5,38,121.5,4,79.6,4z M79.6,150.2
				c-38.8,0-70.2-31.4-70.2-70.2S40.8,9.8,79.6,9.8s70.2,31.4,70.2,70.2S118.3,150.2,79.6,150.2z"/>
			<g class="st3">
				<path class="st2" d="M79.6,9.8C40.8,9.8,9.4,41.2,9.4,80s31.4,70.2,70.2,70.2s70.2-31.4,70.2-70.2S118.3,9.8,79.6,9.8z
					 M79.6,144.4c-35.6,0-64.4-28.8-64.4-64.4S44,15.6,79.6,15.6S144,44.4,144,80S115.1,144.4,79.6,144.4z"/>
			</g>
		</g>
	</g>
</g>
</svg>
