<?xml version="1.0" encoding="UTF-8"?>
<!-- Generated by Pixelmator Pro 3.7 -->
<svg width="200" height="190" viewBox="0 0 200 190" xmlns="http://www.w3.org/2000/svg">
    <linearGradient id="linearGradient1" x1="88.661667" y1="17.169167" x2="28.740833" y2="194.19" gradientUnits="userSpaceOnUse">
        <stop offset="1e-05" stop-color="#114a8b" stop-opacity="1"/>
        <stop offset="1" stop-color="#0669bc" stop-opacity="1"/>
    </linearGradient>
    <path id="Path" fill="url(#linearGradient1)" stroke="none" d="M 67.63166 3.555008 L 125.329994 3.555008 L 65.435837 181.020004 C 64.173393 184.760162 60.665817 187.278275 56.71833 187.27832 L 11.815834 187.27832 C 8.856907 187.278564 6.079045 185.853424 4.353348 183.449829 C 2.627652 181.046265 2.165444 177.958557 3.111667 175.154999 L 58.914165 9.813339 C 60.176384 6.072998 63.684093 3.55481 67.63166 3.555008 Z"/>
    <path id="path1" fill="#0078d4" stroke="none" d="M 151.475006 122.58667 L 59.98 122.58667 C 58.239784 122.586365 56.676445 123.650421 56.038399 125.269447 C 55.40036 126.888466 55.817451 128.733002 57.090004 129.920013 L 115.883331 184.792511 C 117.594627 186.389771 119.848267 187.278168 122.189163 187.27832 L 173.99501 187.27832 Z"/>
    <linearGradient id="linearGradient2" x1="107.38" y1="99.665" x2="93.518333" y2="104.351667" gradientUnits="userSpaceOnUse">
        <stop offset="1e-05" stop-color="#000000" stop-opacity="0.3"/>
        <stop offset="0.071" stop-color="#000000" stop-opacity="0.2"/>
        <stop offset="0.321" stop-color="#000000" stop-opacity="0.1"/>
        <stop offset="0.623" stop-color="#000000" stop-opacity="0.05"/>
        <stop offset="1" stop-color="#000000" stop-opacity="0"/>
    </linearGradient>
    <path id="path2" fill="url(#linearGradient2)" stroke="none" d="M 67.631668 3.555008 C 63.637611 3.540115 60.098045 6.124481 58.895836 9.933334 L 3.180833 175.005005 C 2.170982 177.819733 2.596231 180.950012 4.320392 183.393341 C 6.044554 185.83667 8.851266 187.286423 11.841666 187.27832 L 57.903336 187.27832 C 61.397011 186.654358 64.284462 184.198334 65.460838 180.850006 L 76.569168 148.108337 L 116.25666 185.123322 C 117.919601 186.499329 120.005836 187.260376 122.164169 187.27832 L 173.778336 187.27832 L 151.139999 122.58667 L 85.148338 122.601662 L 125.539993 3.555008 Z"/>
    <linearGradient id="linearGradient3" x1="99.756667" y1="12.005" x2="165.530833" y2="187.243333" gradientUnits="userSpaceOnUse">
        <stop offset="1e-05" stop-color="#3ccbf4" stop-opacity="1"/>
        <stop offset="1" stop-color="#2892df" stop-opacity="1"/>
    </linearGradient>
    <path id="path3" fill="url(#linearGradient3)" stroke="none" d="M 141.32666 9.803345 C 140.066345 6.069153 136.564453 3.555069 132.623322 3.555008 L 68.32 3.555008 C 72.261345 3.554962 75.763535 6.069031 77.02417 9.803345 L 132.830002 175.15416 C 133.776154 177.957809 133.313934 181.045563 131.588287 183.449249 C 129.86264 185.852936 127.084824 187.278259 124.125839 187.27832 L 188.429169 187.27832 C 191.388016 187.278 194.165573 185.852554 195.891037 183.448914 C 197.616486 181.045258 198.078613 177.957672 197.132507 175.15416 Z"/>
</svg>
