<?xml version="1.0" encoding="UTF-8"?>
<!-- Generated by Pixelmator Pro 3.7 -->
<svg width="200" height="121" viewBox="0 0 200 121" xmlns="http://www.w3.org/2000/svg">
    <path id="Path" fill="#161d26" stroke="none" d="M 57.146423 44.467682 C 57.146423 46.901566 57.393814 48.834564 57.888596 50.272888 C 58.383377 51.717468 59.086525 53.272835 59.997658 54.945618 C 60.297337 55.479301 60.453419 55.967323 60.453419 56.422577 C 60.453419 57.106045 60.036682 57.750511 59.196953 58.362202 L 55.095894 61.095306 C 54.490685 61.472931 53.917862 61.667992 53.390694 61.667992 C 52.707054 61.667992 52.062435 61.368774 51.457226 60.75708 C 50.545704 59.845787 49.7649 58.837353 49.120281 57.737244 C 48.475662 56.637527 47.81192 55.368507 47.128277 53.923546 C 42.038044 59.924194 35.658493 62.924137 27.990204 62.924137 C 22.522135 62.924137 18.193268 61.368774 15.00357 58.251411 C 11.813911 55.140671 10.219062 50.962601 10.219062 45.723824 C 10.219062 40.185371 12.191436 35.720924 16.142778 32.343277 C 20.087563 28.96563 25.40591 27.273575 32.091228 27.273575 C 34.291485 27.273575 36.589367 27.442764 38.984882 27.787697 C 41.38055 28.132629 43.866943 28.607704 46.445034 29.212959 L 46.445034 24.429596 C 46.445034 19.496552 45.416447 16.021301 43.372158 14.010323 C 41.321629 11.999359 37.787106 10.990639 32.774754 10.990639 C 30.496382 10.990639 28.159439 11.276985 25.770441 11.843185 C 23.381407 12.415878 21.044464 13.15126 18.76613 14.062401 C 17.705082 14.517937 16.943441 14.804314 16.487757 14.914955 C 16.032114 15.025589 15.693611 15.084137 15.46577 15.084137 C 14.554443 15.084137 14.098761 14.400818 14.098761 13.034157 L 14.098761 9.845245 C 14.098761 8.784416 14.248484 8.023003 14.554443 7.567444 C 14.853888 7.111862 15.46577 6.656334 16.377094 6.200768 C 18.655468 5.061882 21.389484 4.07917 24.579182 3.239655 C 27.768883 2.406624 31.147362 1.983604 34.714584 1.983604 C 42.461029 1.983604 48.137352 3.747269 51.743637 7.281097 C 55.349918 10.808426 57.153057 16.144966 57.153057 23.284195 L 57.153057 44.467682 L 57.146423 44.467682 Z M 30.717707 54.379181 C 32.846359 54.379181 35.085632 53.982445 37.442123 53.181938 C 39.798573 52.38768 41.842548 51.001625 43.593796 49.023376 C 44.654766 47.812859 45.396935 46.420181 45.813286 44.864418 C 46.230022 43.309052 46.438393 41.428337 46.438393 39.228706 L 46.438393 36.495369 C 44.537704 36.039795 42.5457 35.681877 40.456032 35.415031 C 38.366478 35.148201 36.335499 35.018059 34.363087 35.018059 C 30.03422 35.018059 26.805462 35.890106 24.676813 37.634247 C 22.548199 39.384911 21.487114 41.890617 21.487114 45.151146 C 21.487114 48.190102 22.287815 50.48745 23.876148 52.042816 C 25.470997 53.598183 27.749332 54.379181 30.711187 54.379181 L 30.717707 54.379181 Z M 83.00927 61.440552 C 81.869873 61.440552 81.030144 61.232239 80.502975 60.815598 C 79.96917 60.398964 79.513412 59.546574 79.136078 58.251411 L 63.870838 7.912369 C 63.486877 6.623802 63.304653 5.745216 63.304653 5.296158 C 63.304653 4.235359 63.831825 3.701714 64.899437 3.701714 L 71.2789 3.701714 C 72.489708 3.701714 73.348946 3.909966 73.843727 4.326469 C 74.338509 4.742981 74.774361 5.602043 75.152077 6.890602 L 86.08799 49.94091 L 96.223587 6.890602 C 96.522881 5.602043 96.946243 4.749496 97.480049 4.326469 C 98.007217 3.909966 98.885963 3.701714 100.096771 3.701714 L 105.336845 3.701714 C 106.554291 3.701714 107.426399 3.909966 107.960197 4.326469 C 108.487755 4.742981 108.910736 5.602043 109.21003 6.890602 L 119.462692 50.513596 L 130.737305 6.884117 C 131.115005 5.595535 131.551254 4.742981 132.045654 4.319969 C 132.540421 3.903458 133.393433 3.695198 134.610489 3.695198 L 140.644989 3.695198 C 141.705978 3.695198 142.239792 4.228859 142.239792 5.289658 C 142.239792 5.595535 142.20076 5.933929 142.128967 6.311401 C 142.050934 6.695381 141.901474 7.222534 141.673599 7.905861 L 125.95298 58.245167 C 125.568619 59.53994 125.113258 60.392719 124.585701 60.808968 C 124.051895 61.225601 123.218803 61.433922 122.079796 61.433922 L 116.494392 61.433922 C 115.276947 61.433922 114.404839 61.206097 113.871033 60.75045 C 113.337234 60.295193 112.920494 59.422909 112.621208 58.127743 L 102.479362 16.216545 L 92.45459 58.127743 C 92.148666 59.422909 91.731934 60.295193 91.204765 60.75045 C 90.670959 61.206097 89.798462 61.433922 88.581406 61.433922 L 82.996002 61.433922 L 83.00927 61.440552 Z M 166.624512 63.151966 C 163.207092 63.151966 159.867722 62.774731 156.600128 62.013237 C 153.332153 61.258373 150.825867 60.379456 149.081268 59.39053 C 148.020294 58.78508 147.349915 58.180019 147.089264 57.568325 C 146.822754 56.962883 146.692413 56.357819 146.692413 55.745735 L 146.692413 52.439949 C 146.692413 51.073395 147.18721 50.389931 148.176392 50.389931 C 148.554092 50.389931 148.951324 50.467949 149.374313 50.617752 C 149.791046 50.773796 150.34436 51.001625 151.027603 51.300827 C 153.227966 52.290146 155.623444 53.051643 158.201157 53.578674 C 160.779236 54.11235 163.363571 54.379181 165.94751 54.379181 C 170.048569 54.379181 173.219009 53.6567 175.458008 52.212128 C 177.697388 50.773796 178.817276 48.71714 178.817276 46.062057 C 178.817276 44.239853 178.231186 42.723495 177.053162 41.506355 C 175.874741 40.289497 173.69429 39.150612 170.504349 38.089821 L 161.046143 35.1287 C 156.261429 33.612343 152.785477 31.412628 150.62413 28.523094 C 148.462784 25.640068 147.376068 22.490211 147.376068 19.073517 C 147.376068 16.340172 147.961761 13.93222 149.139801 11.843185 C 150.318207 9.75412 151.873962 7.970932 153.807434 6.487114 C 155.740524 5.009819 158.006058 3.883934 160.583755 3.129013 C 163.161438 2.374084 165.89563 1.990112 168.785873 1.990112 C 170.224564 1.990112 171.689011 2.08773 173.173355 2.276466 C 174.657684 2.465195 176.056976 2.712502 177.384842 3.018372 C 178.713089 3.324249 179.949661 3.662659 181.089081 4.040131 C 182.228073 4.424103 183.139587 4.801559 183.822845 5.179024 C 184.734375 5.712669 185.378586 6.246338 185.762955 6.773491 C 186.140289 7.307121 186.329147 8.023003 186.329147 8.94062 L 186.329147 12.012383 C 186.329147 13.379044 185.834366 14.062401 184.845184 14.062401 C 184.311386 14.062401 183.477905 13.79557 182.338882 13.261902 C 178.615143 11.595856 174.43605 10.756348 169.807816 10.756348 C 166.084473 10.756348 163.20047 11.368111 161.149933 12.578583 C 159.099792 13.79557 158.077454 15.728447 158.077454 18.390198 C 158.077454 20.21244 158.722076 21.748299 160.010925 23.004333 C 161.299774 24.253853 163.695251 25.451332 167.191101 26.590218 L 176.415176 29.551338 C 181.121445 31.074203 184.486984 33.156769 186.498489 35.818527 C 188.509995 38.47377 189.518677 41.512985 189.518677 44.929573 C 189.518677 47.741089 188.952484 50.266273 187.813477 52.505096 C 186.674088 54.743546 185.098831 56.663666 183.087311 58.258041 C 181.07579 59.852417 178.660797 61.069557 175.85524 61.902443 C 173.043015 62.735325 169.970535 63.151966 166.631165 63.151966 L 166.624512 63.151966 Z"/>
    <path id="path1" fill="#ff9900" stroke="none" d="M 101.926056 104.82383 C 125.679443 104.82383 151.795929 99.897141 175.822845 89.705925 C 179.448624 88.170059 182.488739 92.087532 178.940979 94.710243 C 157.511658 110.524879 126.434883 118.932907 99.68042 118.932907 C 62.178516 118.932907 28.413502 105.077789 2.856899 82.006721 C 0.851948 80.197784 2.635575 77.718246 5.050629 79.123817 C 32.618671 95.165894 66.70919 104.82383 101.926056 104.82383 Z"/>
    <path id="path2" fill="#ff9900" stroke="none" d="M 184.884201 110.225281 C 183.113449 111.702621 181.434006 110.91539 182.215195 108.962883 L 182.215195 108.956253 C 184.806168 102.500336 190.599548 88.039764 187.852493 84.525276 C 185.11911 81.026764 169.816025 82.856384 162.877365 83.68615 L 162.823135 83.69239 C 160.727356 83.939713 160.401535 82.110886 162.289337 80.78997 C 174.560135 72.179871 194.661591 74.666039 196.998535 77.54895 C 199.35498 80.457977 196.380051 100.606743 184.884201 110.225281 Z"/>
</svg>
