<?xml version="1.0" encoding="UTF-8"?>
<!-- Generated by Pixelmator Pro 3.7 -->
<svg width="200" height="161" viewBox="0 0 200 161" xmlns="http://www.w3.org/2000/svg">
    <g id="g730">
        <g id="g710">
            <path id="path702" fill="#ea4335" stroke="none" d="M 126.18412 44.918144 L 132.113556 44.918144 L 149.014771 28.055008 L 149.843521 20.892822 C 118.387138 -6.812576 70.379707 -3.819595 42.611748 27.565857 C 34.896469 36.276947 29.305527 46.653381 26.247423 57.879929 C 28.126631 57.111305 30.21594 56.983208 32.176868 57.530563 L 65.979317 51.96386 C 65.979317 51.96386 67.695129 49.122299 68.593872 49.296967 C 83.627563 32.818146 108.932724 30.896576 126.30085 44.918144 Z"/>
            <path id="path704" fill="#4285f4" stroke="none" d="M 173.094391 57.879929 C 169.20755 43.602173 161.235504 30.768478 150.146973 20.962692 L 126.42923 44.626984 C 136.443924 52.790718 142.151566 65.100342 141.906464 78.003891 L 141.906464 82.208038 C 153.56691 82.208038 163.021332 91.641151 163.021332 103.27533 C 163.021332 114.9095 153.56691 124.342613 141.906464 124.342613 L 99.676743 124.342613 L 95.463112 128.604996 L 95.463112 153.876404 L 99.676743 158.080551 L 141.906464 158.080551 C 172.230637 158.313477 197.010559 133.973709 197.243988 103.717873 C 197.384048 85.340775 188.314819 68.151558 173.094391 57.879929 Z"/>
            <path id="path706" fill="#34a853" stroke="none" d="M 57.388653 157.812698 L 99.618378 157.812698 L 99.618378 124.086395 L 57.388653 124.086395 C 54.377243 124.086395 51.412514 123.434235 48.669571 122.188118 L 42.740128 124.028198 L 25.722174 140.891327 L 24.239817 146.807404 C 33.775936 154.004532 45.424721 157.870941 57.388653 157.812698 Z"/>
            <path id="path708" fill="#fbbc05" stroke="none" d="M 57.388653 48.411873 C 27.052811 48.586571 2.623056 73.264046 2.798133 103.531548 C 2.903193 120.429626 10.805217 136.337814 24.239817 146.63269 L 48.727936 122.199783 C 38.106293 117.413361 33.379086 104.929047 38.176327 94.331337 C 42.973572 83.733665 55.486088 79.017105 66.107712 83.80352 C 70.788246 85.911407 74.534988 89.661385 76.659309 94.331337 L 101.147423 69.898415 C 90.735886 56.296104 74.534988 48.34201 57.388653 48.411873 Z"/>
        </g>
    </g>
</svg>
